<svg width="120" height="95" viewBox="0 0 120 95" fill="none" xmlns="http://www.w3.org/2000/svg">
<path fill-rule="evenodd" clip-rule="evenodd" d="M76.144 24.3072L59.8437 15.6137L4.86588 44.8136C4.35107 42.3484 4.08044 39.7936 4.08044 37.1755C4.08044 16.6441 20.7245 0 41.256 0C57.2638 0 70.9085 10.1178 76.144 24.3072Z" fill="#EF7721"/>
<path fill-rule="evenodd" clip-rule="evenodd" d="M10.233 51.4999H2.79787L22.6248 40.983V51.4999H29.5642V37.3021L42.9474 30.2031V59.4306H29.5642V56.4566H22.6248V59.4306H10.233V51.4999ZM42.9474 60.422H10.233V75.2922H5.77191V80.7446H47.9042V75.3424H42.9474V60.422ZM48.8955 80.7446H75.9097V60.422H43.9388V74.3511H48.8955V80.7446ZM43.9388 59.4306V29.6773L59.8003 21.2638L75.9097 29.7042V59.4307L63.27 59.4306V56.4566H56.3306V59.4306H43.9388ZM89.3364 60.4722L76.9011 60.422V80.7446H89.3364V75.3424L92.8061 78.5643L96.2758 75.3424V80.7446H109.863V60.422L96.2758 60.422L92.8061 63.4462L89.3364 60.4722ZM109.863 51.4999V59.4307L76.9011 59.4307V30.2236L85.0797 34.5087V51.4999H89.7886V36.9572L95.7367 40.0994V51.4999H100.446V42.5777L117.298 51.4999H109.863ZM56.3306 65.3787V75.2922H63.27V65.3787H56.3306ZM22.6248 75.2922V65.3787H29.5642V75.2922H22.6248ZM56.3306 51.4999V31.412L59.8003 29.6902L63.27 31.412V51.4999H56.3306Z" fill="white"/>
<path fill-rule="evenodd" clip-rule="evenodd" d="M59.7988 15.3659L82.1056 27.2164V17.2984H103.42V38.2233L119.991 47.219L118.572 49.8327L100.446 39.9928V20.2724H85.0797V32.164L59.8019 18.7352L1.51523 49.8378L0.115112 47.2139L59.7988 15.3659Z" fill="white"/>
<path d="M0.986985 95C0.841858 95 0.712453 94.9875 0.598771 94.9625C0.485088 94.94 0.406477 94.9174 0.362939 94.8949L0.58063 94.1144C0.788645 94.1695 0.972472 94.1895 1.13211 94.1745C1.29175 94.1595 1.43325 94.0857 1.55661 93.9531C1.68238 93.823 1.79728 93.6116 1.90128 93.3189L2.06092 92.8687L0.00012207 87.075H0.928934L2.46728 91.6679H2.52533L4.06368 87.075H4.99249L2.62692 93.6792C2.52049 93.9769 2.38867 94.2233 2.23145 94.4184C2.07423 94.616 1.89161 94.7624 1.68359 94.8574C1.478 94.9525 1.24579 95 0.986985 95Z" fill="white"/>
<path d="M6.12266 92.8386V87.075H10.5055V92.8386H9.64925V87.9006H6.97891V92.8386H6.12266Z" fill="white"/>
<path d="M12.0692 95V87.075H12.8965V87.9906H12.9981C13.0609 87.8906 13.148 87.763 13.2593 87.6079C13.373 87.4503 13.535 87.3102 13.7455 87.1876C13.9583 87.0625 14.2461 87 14.609 87C15.0782 87 15.4918 87.1213 15.8498 87.364C16.2078 87.6066 16.4871 87.9506 16.6879 88.3959C16.8887 88.8412 16.989 89.3665 16.989 89.9719C16.989 90.5822 16.8887 91.1113 16.6879 91.5591C16.4871 92.0044 16.209 92.3496 15.8534 92.5947C15.4979 92.8374 15.0879 92.9587 14.6235 92.9587C14.2655 92.9587 13.9789 92.8974 13.7636 92.7749C13.5483 92.6498 13.3826 92.5084 13.2665 92.3508C13.1504 92.1907 13.0609 92.0582 12.9981 91.9531H12.9255V95H12.0692ZM12.911 89.9568C12.911 90.3921 12.9727 90.7761 13.096 91.1088C13.2194 91.439 13.3996 91.6979 13.6366 91.8856C13.8737 92.0707 14.1639 92.1632 14.5074 92.1632C14.8654 92.1632 15.1641 92.0657 15.4035 91.8705C15.6454 91.6729 15.8268 91.4078 15.9478 91.075C16.0711 90.7398 16.1328 90.3671 16.1328 89.9568C16.1328 89.5516 16.0723 89.1864 15.9514 88.8612C15.8329 88.5335 15.6527 88.2745 15.4108 88.0844C15.1713 87.8918 14.8702 87.7955 14.5074 87.7955C14.1591 87.7955 13.8664 87.8868 13.6294 88.0694C13.3923 88.2495 13.2133 88.5022 13.0924 88.8274C12.9714 89.1501 12.911 89.5266 12.911 89.9568Z" fill="white"/>
<path d="M19.9351 92.9737C19.582 92.9737 19.2615 92.9049 18.9737 92.7674C18.6858 92.6273 18.4572 92.4259 18.2879 92.1632C18.1186 91.8981 18.034 91.5779 18.034 91.2026C18.034 90.8724 18.0968 90.6048 18.2226 90.3996C18.3484 90.192 18.5165 90.0294 18.7269 89.9118C18.9374 89.7942 19.1696 89.7067 19.4235 89.6492C19.6799 89.5891 19.9375 89.5416 20.1963 89.5066C20.535 89.4615 20.8095 89.4278 21.0199 89.4053C21.2328 89.3802 21.3876 89.339 21.4843 89.2814C21.5835 89.2239 21.6331 89.1238 21.6331 88.9812V88.9512C21.6331 88.581 21.5351 88.2933 21.3392 88.0882C21.1457 87.8831 20.8518 87.7805 20.4576 87.7805C20.0488 87.7805 19.7283 87.873 19.4961 88.0582C19.2639 88.2433 19.1006 88.4409 19.0063 88.651L18.1936 88.3508C18.3387 88.0006 18.5322 87.728 18.7741 87.5328C19.0184 87.3352 19.2845 87.1976 19.5723 87.1201C19.8626 87.04 20.148 87 20.4285 87C20.6075 87 20.8131 87.0225 21.0453 87.0675C21.28 87.1101 21.5061 87.1989 21.7238 87.334C21.9439 87.469 22.1265 87.6729 22.2717 87.9456C22.4168 88.2183 22.4894 88.5835 22.4894 89.0413V92.8386H21.6331V92.0582H21.5896C21.5315 92.1832 21.4348 92.3171 21.2993 92.4597C21.1639 92.6023 20.9837 92.7236 20.7587 92.8236C20.5338 92.9237 20.2592 92.9737 19.9351 92.9737ZM20.0657 92.1782C20.4044 92.1782 20.6898 92.1094 20.922 91.9719C21.1566 91.8343 21.3332 91.6567 21.4517 91.439C21.5726 91.2214 21.6331 90.9925 21.6331 90.7523V89.9418C21.5968 89.9869 21.517 90.0281 21.3936 90.0657C21.2727 90.1007 21.1324 90.132 20.9728 90.1595C20.8156 90.1845 20.662 90.207 20.512 90.227C20.3645 90.2445 20.2447 90.2595 20.1528 90.272C19.9303 90.3021 19.7223 90.3508 19.5288 90.4184C19.3377 90.4834 19.1829 90.5822 19.0644 90.7148C18.9483 90.8449 18.8902 91.0225 18.8902 91.2477C18.8902 91.5553 19.0003 91.788 19.2204 91.9456C19.4429 92.1007 19.7247 92.1782 20.0657 92.1782Z" fill="white"/>
<path d="M24.0522 92.8386V87.075H26.3307C26.9305 87.075 27.407 87.2151 27.7602 87.4953C28.1133 87.7755 28.2899 88.1457 28.2899 88.606C28.2899 88.9562 28.1895 89.2276 27.9888 89.4203C27.788 89.6104 27.5304 89.7392 27.216 89.8068C27.4215 89.8368 27.6211 89.9118 27.8146 90.0319C28.0105 90.152 28.1726 90.3171 28.3008 90.5272C28.429 90.7348 28.4931 90.99 28.4931 91.2927C28.4931 91.5879 28.4205 91.8518 28.2754 92.0844C28.1303 92.3171 27.9222 92.5009 27.6513 92.636C27.3804 92.7711 27.0563 92.8386 26.679 92.8386H24.0522ZM24.8649 92.0281H26.679C26.9741 92.0281 27.2051 91.9556 27.372 91.8105C27.5389 91.6654 27.6223 91.4678 27.6223 91.2176C27.6223 90.9199 27.5389 90.6861 27.372 90.5159C27.2051 90.3433 26.9741 90.257 26.679 90.257H24.8649V92.0281ZM24.8649 89.4916H26.3307C26.5605 89.4916 26.7576 89.459 26.9221 89.394C27.0865 89.3265 27.2123 89.2314 27.2994 89.1088C27.3889 88.9837 27.4336 88.8361 27.4336 88.666C27.4336 88.4234 27.3357 88.2333 27.1398 88.0957C26.9438 87.9556 26.6741 87.8856 26.3307 87.8856H24.8649V89.4916Z" fill="white"/>
<path d="M29.2958 92.8386V92.0131H29.499C29.6659 92.0131 29.805 91.9794 29.9162 91.9118C30.0275 91.8418 30.117 91.7204 30.1847 91.5478C30.2548 91.3727 30.3081 91.1301 30.3443 90.8199C30.383 90.5072 30.4109 90.1094 30.4278 89.6266L30.5294 87.075H34.2446V92.8386H33.3884V87.9006H31.3421L31.255 89.9568C31.2357 90.4296 31.1945 90.8462 31.1317 91.2064C31.0712 91.5641 30.9781 91.8643 30.8523 92.1069C30.7289 92.3496 30.5645 92.5322 30.3589 92.6548C30.1533 92.7774 29.8957 92.8386 29.5861 92.8386H29.2958Z" fill="white"/>
<path d="M39.1681 92.8386V87.8856H37.6878C37.354 87.8856 37.0915 87.9656 36.9005 88.1257C36.7094 88.2858 36.6138 88.5059 36.6138 88.7861C36.6138 89.0613 36.6997 89.2777 36.8714 89.4353C37.0456 89.5929 37.2838 89.6717 37.5862 89.6717H39.3857V90.4972H37.5862C37.2089 90.4972 36.8835 90.4284 36.6102 90.2908C36.3369 90.1532 36.1264 89.9568 35.9789 89.7017C35.8314 89.444 35.7576 89.1388 35.7576 88.7861C35.7576 88.4309 35.835 88.1257 35.9898 87.8705C36.1446 87.6154 36.3659 87.419 36.6537 87.2814C36.944 87.1438 37.2887 87.075 37.6878 87.075H39.9808V92.8386H39.1681ZM35.4528 92.8386L37.0347 89.9719H37.9635L36.3816 92.8386H35.4528Z" fill="white"/>
<path d="M44.223 89.5966V90.4221H41.2769V89.5966H44.223ZM42.0026 87.075V92.8386H41.1463V87.075H42.0026ZM45.9355 92.9587C45.4324 92.9587 44.991 92.8349 44.6112 92.5872C44.2339 92.3396 43.9388 91.9931 43.726 91.5478C43.5155 91.1026 43.4103 90.5822 43.4103 89.9869C43.4103 89.3865 43.5155 88.8624 43.726 88.4146C43.9388 87.9669 44.2339 87.6191 44.6112 87.3715C44.991 87.1238 45.4324 87 45.9355 87C46.4386 87 46.8788 87.1238 47.2562 87.3715C47.6359 87.6191 47.931 87.9669 48.1414 88.4146C48.3543 88.8624 48.4607 89.3865 48.4607 89.9869C48.4607 90.5822 48.3543 91.1026 48.1414 91.5478C47.931 91.9931 47.6359 92.3396 47.2562 92.5872C46.8788 92.8349 46.4386 92.9587 45.9355 92.9587ZM45.9355 92.1632C46.3177 92.1632 46.6321 92.0619 46.8788 91.8593C47.1255 91.6567 47.3082 91.3902 47.4267 91.06C47.5452 90.7298 47.6045 90.3721 47.6045 89.9869C47.6045 89.6016 47.5452 89.2427 47.4267 88.9099C47.3082 88.5772 47.1255 88.3083 46.8788 88.1032C46.6321 87.8981 46.3177 87.7955 45.9355 87.7955C45.5533 87.7955 45.2389 87.8981 44.9922 88.1032C44.7455 88.3083 44.5629 88.5772 44.4443 88.9099C44.3258 89.2427 44.2666 89.6016 44.2666 89.9869C44.2666 90.3721 44.3258 90.7298 44.4443 91.06C44.5629 91.3902 44.7455 91.6567 44.9922 91.8593C45.2389 92.0619 45.5533 92.1632 45.9355 92.1632Z" fill="white"/>
<path d="M57.4586 92.0131L57.357 94.4897H56.4717V92.8386H55.7461V92.0131H57.4586ZM49.8539 87.075H50.7102V92.0131H52.8145V87.075H53.6708V92.0131H55.7751V87.075H56.6314V92.8386H49.8539V87.075Z" fill="white"/>
<path d="M60.3439 92.9737C59.9907 92.9737 59.6703 92.9049 59.3824 92.7674C59.0946 92.6273 58.866 92.4259 58.6967 92.1632C58.5274 91.8981 58.4427 91.5779 58.4427 91.2026C58.4427 90.8724 58.5056 90.6048 58.6314 90.3996C58.7572 90.192 58.9253 90.0294 59.1357 89.9118C59.3461 89.7942 59.5783 89.7067 59.8323 89.6492C60.0887 89.5891 60.3463 89.5416 60.6051 89.5066C60.9438 89.4615 61.2183 89.4278 61.4287 89.4053C61.6416 89.3802 61.7964 89.339 61.8931 89.2814C61.9923 89.2239 62.0419 89.1238 62.0419 88.9812V88.9512C62.0419 88.581 61.9439 88.2933 61.748 88.0882C61.5545 87.8831 61.2606 87.7805 60.8664 87.7805C60.4576 87.7805 60.1371 87.873 59.9049 88.0582C59.6727 88.2433 59.5094 88.4409 59.4151 88.651L58.6024 88.3508C58.7475 88.0006 58.941 87.728 59.1829 87.5328C59.4272 87.3352 59.6932 87.1976 59.9811 87.1201C60.2713 87.04 60.5567 87 60.8373 87C61.0163 87 61.2219 87.0225 61.4541 87.0675C61.6887 87.1101 61.9149 87.1989 62.1326 87.334C62.3527 87.469 62.5353 87.6729 62.6804 87.9456C62.8256 88.2183 62.8981 88.5835 62.8981 89.0413V92.8386H62.0419V92.0582H61.9983C61.9403 92.1832 61.8435 92.3171 61.7081 92.4597C61.5726 92.6023 61.3924 92.7236 61.1675 92.8236C60.9425 92.9237 60.668 92.9737 60.3439 92.9737ZM60.4745 92.1782C60.8131 92.1782 61.0986 92.1094 61.3308 91.9719C61.5654 91.8343 61.7419 91.6567 61.8605 91.439C61.9814 91.2214 62.0419 90.9925 62.0419 90.7523V89.9418C62.0056 89.9869 61.9258 90.0281 61.8024 90.0657C61.6815 90.1007 61.5412 90.132 61.3815 90.1595C61.2243 90.1845 61.0707 90.207 60.9208 90.227C60.7732 90.2445 60.6535 90.2595 60.5616 90.272C60.3391 90.3021 60.131 90.3508 59.9375 90.4184C59.7465 90.4834 59.5917 90.5822 59.4731 90.7148C59.357 90.8449 59.299 91.0225 59.299 91.2477C59.299 91.5553 59.409 91.788 59.6291 91.9456C59.8517 92.1007 60.1335 92.1782 60.4745 92.1782Z" fill="white"/>
<path d="M67.8134 92.8386V87.8856H66.3331C65.9993 87.8856 65.7369 87.9656 65.5458 88.1257C65.3547 88.2858 65.2592 88.5059 65.2592 88.7861C65.2592 89.0613 65.345 89.2777 65.5168 89.4353C65.6909 89.5929 65.9292 89.6717 66.2315 89.6717H68.0311V90.4972H66.2315C65.8542 90.4972 65.5289 90.4284 65.2555 90.2908C64.9822 90.1532 64.7718 89.9568 64.6242 89.7017C64.4767 89.444 64.4029 89.1388 64.4029 88.7861C64.4029 88.4309 64.4803 88.1257 64.6351 87.8705C64.7899 87.6154 65.0112 87.419 65.2991 87.2814C65.5893 87.1438 65.934 87.075 66.3331 87.075H68.6261V92.8386H67.8134ZM64.0981 92.8386L65.68 89.9719H66.6088L65.027 92.8386H64.0981Z" fill="white"/>
<path d="M73.0715 92.8386V87.075H73.9278V89.5816H74.4938L76.4965 87.075H77.5995L75.35 89.8518L77.6285 92.8386H76.5255L74.6969 90.4071H73.9278V92.8386H73.0715Z" fill="white"/>
<path d="M80.5936 92.9587C80.0905 92.9587 79.6491 92.8349 79.2693 92.5872C78.892 92.3396 78.5969 91.9931 78.3841 91.5478C78.1736 91.1026 78.0684 90.5822 78.0684 89.9869C78.0684 89.3865 78.1736 88.8624 78.3841 88.4146C78.5969 87.9669 78.892 87.6191 79.2693 87.3715C79.6491 87.1238 80.0905 87 80.5936 87C81.0967 87 81.537 87.1238 81.9143 87.3715C82.294 87.6191 82.5891 87.9669 82.7996 88.4146C83.0124 88.8624 83.1188 89.3865 83.1188 89.9869C83.1188 90.5822 83.0124 91.1026 82.7996 91.5478C82.5891 91.9931 82.294 92.3396 81.9143 92.5872C81.537 92.8349 81.0967 92.9587 80.5936 92.9587ZM80.5936 92.1632C80.9758 92.1632 81.2902 92.0619 81.537 91.8593C81.7837 91.6567 81.9663 91.3902 82.0848 91.06C82.2033 90.7298 82.2626 90.3721 82.2626 89.9869C82.2626 89.6016 82.2033 89.2427 82.0848 88.9099C81.9663 88.5772 81.7837 88.3083 81.537 88.1032C81.2902 87.8981 80.9758 87.7955 80.5936 87.7955C80.2115 87.7955 79.897 87.8981 79.6503 88.1032C79.4036 88.3083 79.221 88.5772 79.1025 88.9099C78.9839 89.2427 78.9247 89.6016 78.9247 89.9869C78.9247 90.3721 78.9839 90.7298 79.1025 91.06C79.221 91.3902 79.4036 91.6567 79.6503 91.8593C79.897 92.0619 80.2115 92.1632 80.5936 92.1632Z" fill="white"/>
<path d="M87.4735 91.6379L89.4183 87.075H90.231L87.8219 92.8386H87.1252L84.7597 87.075H85.5579L87.4735 91.6379ZM85.2821 87.075V92.8386H84.4259V87.075H85.2821ZM89.665 92.8386V87.075H90.5212V92.8386H89.665Z" fill="white"/>
<path d="M92.0886 92.8386V87.075H96.4714V92.8386H95.6152V87.9006H92.9448V92.8386H92.0886Z" fill="white"/>
<path d="M99.6751 92.9737C99.322 92.9737 99.0015 92.9049 98.7136 92.7674C98.4258 92.6273 98.1972 92.4259 98.0279 92.1632C97.8586 91.8981 97.7739 91.5779 97.7739 91.2026C97.7739 90.8724 97.8368 90.6048 97.9626 90.3996C98.0884 90.192 98.2565 90.0294 98.4669 89.9118C98.6774 89.7942 98.9096 89.7067 99.1635 89.6492C99.4199 89.5891 99.6775 89.5416 99.9363 89.5066C100.275 89.4615 100.549 89.4278 100.76 89.4053C100.973 89.3802 101.128 89.339 101.224 89.2814C101.323 89.2239 101.373 89.1238 101.373 88.9812V88.9512C101.373 88.581 101.275 88.2933 101.079 88.0882C100.886 87.8831 100.592 87.7805 100.198 87.7805C99.7888 87.7805 99.4683 87.873 99.2361 88.0582C99.0039 88.2433 98.8406 88.4409 98.7463 88.651L97.9336 88.3508C98.0787 88.0006 98.2722 87.728 98.5141 87.5328C98.7584 87.3352 99.0244 87.1976 99.3123 87.1201C99.6025 87.04 99.8879 87 100.169 87C100.348 87 100.553 87.0225 100.785 87.0675C101.02 87.1101 101.246 87.1989 101.464 87.334C101.684 87.469 101.867 87.6729 102.012 87.9456C102.157 88.2183 102.229 88.5835 102.229 89.0413V92.8386H101.373V92.0582H101.33C101.271 92.1832 101.175 92.3171 101.039 92.4597C100.904 92.6023 100.724 92.7236 100.499 92.8236C100.274 92.9237 99.9992 92.9737 99.6751 92.9737ZM99.8057 92.1782C100.144 92.1782 100.43 92.1094 100.662 91.9719C100.897 91.8343 101.073 91.6567 101.192 91.439C101.313 91.2214 101.373 90.9925 101.373 90.7523V89.9418C101.337 89.9869 101.257 90.0281 101.134 90.0657C101.013 90.1007 100.872 90.132 100.713 90.1595C100.556 90.1845 100.402 90.207 100.252 90.227C100.104 90.2445 99.9847 90.2595 99.8928 90.272C99.6703 90.3021 99.4622 90.3508 99.2687 90.4184C99.0777 90.4834 98.9229 90.5822 98.8043 90.7148C98.6882 90.8449 98.6302 91.0225 98.6302 91.2477C98.6302 91.5553 98.7402 91.788 98.9603 91.9456C99.1829 92.1007 99.4647 92.1782 99.8057 92.1782Z" fill="white"/>
<path d="M107.522 89.5516V90.3771H104.445V89.5516H107.522ZM104.648 87.075V92.8386H103.792V87.075H104.648ZM108.175 87.075V92.8386H107.319V87.075H108.175Z" fill="white"/>
<path d="M110.595 91.5328L113.28 87.075H114.267V92.8386H113.41V88.3809L110.74 92.8386H109.739V87.075H110.595V91.5328Z" fill="white"/>
<path d="M119.187 92.8386V87.8856H117.707C117.373 87.8856 117.111 87.9656 116.92 88.1257C116.729 88.2858 116.633 88.5059 116.633 88.7861C116.633 89.0613 116.719 89.2777 116.891 89.4353C117.065 89.5929 117.303 89.6717 117.606 89.6717H119.405V90.4972H117.606C117.228 90.4972 116.903 90.4284 116.63 90.2908C116.356 90.1532 116.146 89.9568 115.998 89.7017C115.851 89.444 115.777 89.1388 115.777 88.7861C115.777 88.4309 115.854 88.1257 116.009 87.8705C116.164 87.6154 116.385 87.419 116.673 87.2814C116.963 87.1438 117.308 87.075 117.707 87.075H120V92.8386H119.187ZM115.472 92.8386L117.054 89.9719H117.983L116.401 92.8386H115.472Z" fill="white"/>
</svg>
